<svg width="42" height="42" viewBox="0 0 42 42" fill="none" xmlns="http://www.w3.org/2000/svg">
<rect y="1" width="40" height="40" rx="20" fill="url(#paint0_linear_16_4797)"/>
<path fill-rule="evenodd" clip-rule="evenodd" d="M20 32C26.0751 32 31 27.0751 31 21C31 14.9249 26.0751 10 20 10C13.9249 10 9 14.9249 9 21C9 27.0751 13.9249 32 20 32ZM23.4343 21.0657C23.7467 21.3781 24.2533 21.3781 24.5657 21.0657C24.8781 20.7533 24.8781 20.2467 24.5657 19.9343L20.5657 15.9343C20.2533 15.6219 19.7467 15.6219 19.4343 15.9343L15.4343 19.9343C15.1219 20.2467 15.1219 20.7533 15.4343 21.0657C15.7467 21.3781 16.2533 21.3781 16.5657 21.0657L19.2 18.4314V26C19.2 26.4418 19.5582 26.8 20 26.8C20.4418 26.8 20.8 26.4418 20.8 26V18.4314L23.4343 21.0657Z" fill="#EFEFF4"/>
<defs>
<linearGradient id="paint0_linear_16_4797" x1="20" y1="1" x2="34.443" y2="34.8347" gradientUnits="userSpaceOnUse">
<stop stop-color="#34C759"/>
<stop offset="1" stop-color="#34C759"/>
</linearGradient>
</defs>
</svg>
